<svg xmlns="http://www.w3.org/2000/svg" width="128mm" height="128mm" viewBox="0 0 128 128"><path fill="none" stroke="#f60" stroke-width="10" d="m62.923725 84.317795c2.10964 3.217992-3.296967 4.431396-5.348514 3.50636-5.559566-2.50679-4.943374-10.167697-1.664206-14.203388 5.865663-7.218905 16.924688-5.906852 23.058262.177948 9.001267 8.929688 6.9199 23.780936-2.020102 31.913135-11.915616 10.83894-30.673415 7.95533-40.76801-3.86226-12.703017-14.871221-9.002594-37.5834 5.70441-49.622879 17.812153-14.581423 44.503305-10.056758 58.477755 7.546564 16.46841 20.744906 11.11526 51.429395-9.388715 67.332635-23.672656 18.36092-58.35961 12.17666-76.187506-11.23088-20.2571884-26.59712-13.2400794-65.29272 13.073026-85.042375 29.519328-22.1561286 72.227955-14.304967 93.897255 14.91518 24.05703 32.439902 15.37095 79.164765-16.75734 102.752125" transform="matrix(.89832253 0 0 .89832253 1.759011 -10.383552)"/></svg>